<?xml version="1.0" standalone="no"?>
<!DOCTYPE svg PUBLIC "-//W3C//DTD SVG 20010904//EN"
 "http://www.w3.org/TR/2001/REC-SVG-20010904/DTD/svg10.dtd">
<svg version="1.0" xmlns="http://www.w3.org/2000/svg"
 width="1890.000000pt" height="1417.000000pt" viewBox="0 0 1890.000000 1417.000000"
 preserveAspectRatio="xMidYMid meet">

<g transform="translate(0.000000,1417.000000) scale(0.100000,-0.100000)"
fill="#000000" stroke="none">
<path d="M11455 8373 c-177 -124 -365 -345 -467 -547 -46 -91 -109 -277 -129
-381 -22 -110 -19 -467 5 -575 63 -288 196 -531 405 -741 176 -176 353 -285
581 -359 176 -57 230 -65 460 -65 230 0 284 8 460 65 201 65 391 176 532 310
68 65 70 69 36 55 -26 -10 -74 -15 -156 -15 -145 0 -191 18 -229 90 -23 42
-23 49 -23 352 0 299 -1 311 -21 336 -11 15 -23 26 -25 25 -2 -2 -4 -1 -4 2 1
3 -20 26 -45 51 -25 25 -45 50 -45 55 0 6 -4 7 -10 4 -5 -3 -10 1 -10 9 0 9
-5 16 -11 16 -5 0 -7 5 -3 12 4 6 3 8 -3 5 -6 -4 -17 3 -26 16 -8 12 -28 37
-46 56 -17 18 -31 37 -31 43 0 5 -4 6 -10 3 -5 -3 -10 -2 -10 4 0 5 -19 31
-42 58 -23 26 -38 39 -34 28 41 -107 47 -322 10 -372 -31 -42 -65 -62 -114
-68 l-45 -6 42 20 c58 27 76 66 81 176 9 208 -62 369 -240 544 -72 71 -150
119 -253 153 -51 18 -70 28 -53 28 16 0 68 -13 118 -29 49 -16 87 -25 84 -20
-3 5 -12 9 -20 9 -8 0 -14 5 -14 11 0 6 -10 20 -22 31 -13 11 -16 17 -8 13 8
-3 6 0 -4 7 -10 7 -28 24 -40 37 -12 13 -31 35 -44 47 -13 13 -20 24 -17 24 3
0 -17 22 -45 50 -27 27 -50 54 -50 60 0 6 -4 8 -10 5 -5 -3 -10 0 -10 7 0 8
-8 21 -17 29 -10 9 -31 33 -47 52 -16 20 -33 34 -37 31 -5 -3 -9 1 -9 9 0 8
-12 23 -26 33 -14 10 -34 35 -45 54 -11 19 -33 43 -50 52 -16 10 -28 21 -27
27 2 5 -17 29 -42 53 -25 25 -49 52 -55 61 -9 14 -20 9 -90 -40z m398 -617
c255 -49 473 -243 557 -496 27 -82 38 -249 20 -306 -16 -51 -55 -92 -99 -104
-21 -6 -210 -10 -455 -10 l-419 0 6 -51 c7 -53 42 -139 78 -191 36 -51 135
-116 210 -139 59 -18 76 -19 121 -10 78 17 165 64 241 131 65 57 71 60 121 60
111 0 196 -110 167 -216 -32 -117 -202 -240 -406 -295 -66 -18 -110 -22 -245
-23 -143 -1 -176 2 -249 22 -156 42 -271 112 -384 231 -139 148 -207 334 -207
569 0 132 13 213 49 319 93 272 319 466 591 512 86 14 221 12 303 -3z m85 7
c-10 -2 -26 -2 -35 0 -10 3 -2 5 17 5 19 0 27 -2 18 -5z m540 -1153 c89 -64
103 -164 37 -260 -37 -53 -130 -124 -217 -165 -72 -34 -212 -76 -252 -74 -12
0 13 9 54 19 182 47 361 177 389 282 23 81 -7 157 -78 205 l-34 23 30 0 c17 0
47 -13 71 -30z m-495 -507 c-7 -2 -19 -2 -25 0 -7 3 -2 5 12 5 14 0 19 -2 13
-5z"/>
<path d="M11628 7450 c-143 -24 -262 -129 -304 -265 l-13 -45 47 0 48 0 13 48
c31 118 117 200 265 253 43 15 46 17 21 17 -16 0 -51 -4 -77 -8z"/>
<path d="M11699 7426 c-119 -48 -195 -132 -227 -248 l-10 -38 273 0 c150 0
280 3 289 6 11 4 16 19 16 42 0 86 -96 204 -195 241 -69 26 -77 26 -146 -3z"/>
<path d="M11313 6788 c4 -32 22 -84 44 -128 64 -126 189 -207 333 -216 l65 -5
-57 19 c-163 55 -273 181 -295 338 l-6 44 -45 0 -45 0 6 -52z"/>
<path d="M8580 8401 c-130 -43 -201 -163 -170 -291 17 -70 58 -122 121 -154
167 -83 353 30 353 214 0 99 -45 169 -137 216 -35 19 -131 27 -167 15z"/>
<path d="M5967 8386 c-58 -21 -116 -70 -155 -131 -14 -22 -193 -458 -399 -970
-397 -989 -395 -983 -358 -1054 22 -44 71 -79 132 -97 91 -26 180 -2 229 61
13 18 68 144 122 281 l97 249 439 0 438 0 96 -250 c83 -213 103 -256 137 -291
69 -73 168 -82 269 -26 68 38 100 96 91 166 -4 30 -149 406 -378 974 -414
1033 -405 1015 -518 1071 -53 26 -73 31 -133 31 -39 -1 -88 -7 -109 -14z m277
-898 c75 -219 136 -400 136 -403 0 -3 -140 -5 -311 -5 -248 0 -310 3 -306 13
2 7 68 195 145 417 78 223 146 421 153 440 l12 34 17 -49 c10 -28 79 -229 154
-447z"/>
<path d="M7565 8371 c-50 -22 -92 -71 -100 -114 -3 -18 -4 -481 -3 -1029 3
-993 3 -997 24 -1025 81 -110 257 -110 338 0 21 28 21 32 24 1025 2 548 0
1011 -3 1029 -13 73 -99 133 -190 133 -27 0 -68 -9 -90 -19z"/>
<path d="M8580 7739 c-50 -15 -100 -56 -116 -95 -12 -29 -14 -148 -12 -723 3
-682 3 -690 24 -718 81 -110 257 -110 338 0 21 28 21 34 21 731 l0 703 -27 35
c-47 61 -148 91 -228 67z"/>
<path d="M9335 7737 c-95 -37 -139 -91 -139 -172 0 -44 34 -130 274 -683 295
-680 308 -704 395 -743 25 -12 64 -19 106 -19 80 0 139 27 184 86 43 55 585
1312 585 1354 0 73 -60 148 -143 179 -72 27 -170 4 -209 -50 -11 -14 -109
-254 -218 -533 -110 -280 -201 -510 -203 -512 -1 -2 -93 227 -202 508 -114
291 -211 524 -225 541 -44 53 -132 72 -205 44z"/>
<path d="M13010 6513 c0 -264 1 -271 23 -303 25 -38 61 -66 97 -75 22 -6 21
-4 -7 15 -17 12 -41 40 -52 64 -19 39 -21 60 -21 285 0 228 -1 243 -20 263
l-20 22 0 -271z"/>
<path d="M13434 6244 c-6 -25 -8 -41 -5 -37 4 5 16 19 28 33 21 24 21 26 5 37
-16 9 -19 5 -28 -33z"/>
</g>
</svg>
